<svg xmlns="http://www.w3.org/2000/svg" xmlns:xlink="http://www.w3.org/1999/xlink" width="1920" height="1080" viewBox="0 0 1920 1080">
  <defs>
    <clipPath id="clip-path">
      <rect width="274" height="1049" fill="none"/>
    </clipPath>
    <clipPath id="clip-Web_1920_1">
      <rect width="1920" height="1080"/>
    </clipPath>
  </defs>
  <g id="Web_1920_1" data-name="Web 1920 – 1" clip-path="url(#clip-Web_1920_1)">
    <rect width="1920" height="1080" fill="#441716"/>
    <g id="Group_11141" data-name="Group 11141" opacity="0.5">
      <g id="Ellipse_4" data-name="Ellipse 4" transform="translate(287 808)" fill="none" stroke="#2a0c0c" stroke-width="100" opacity="0.39">
        <ellipse cx="401" cy="400.5" rx="401" ry="400.5" stroke="none"/>
        <ellipse cx="401" cy="400.5" rx="351" ry="350.5" fill="none"/>
      </g>
      <g id="Ellipse_1" data-name="Ellipse 1" transform="translate(-99 -182)" fill="none" stroke="#2a0c0c" stroke-width="100" opacity="0.39">
        <circle cx="262.5" cy="262.5" r="262.5" stroke="none"/>
        <circle cx="262.5" cy="262.5" r="212.5" fill="none"/>
      </g>
      <g id="Ellipse_2" data-name="Ellipse 2" transform="translate(1366 972)" fill="none" stroke="#2a0c0c" stroke-width="50" opacity="0.39">
        <ellipse cx="107" cy="108" rx="107" ry="108" stroke="none"/>
        <ellipse cx="107" cy="108" rx="82" ry="83" fill="none"/>
      </g>
    </g>
    <g id="Repeat_Grid_4" data-name="Repeat Grid 4" transform="translate(1642 31)" opacity="0.5" clip-path="url(#clip-path)">
      <g transform="translate(-1642 -31)">
        <circle id="Ellipse_60" data-name="Ellipse 60" cx="4.5" cy="4.5" r="4.5" transform="translate(1642 31)" fill="#2a0c0c"/>
      </g>
      <g transform="translate(-1595 -31)">
        <circle id="Ellipse_60-2" data-name="Ellipse 60" cx="4.5" cy="4.5" r="4.5" transform="translate(1642 31)" fill="#2a0c0c"/>
      </g>
      <g transform="translate(-1548 -31)">
        <circle id="Ellipse_60-3" data-name="Ellipse 60" cx="4.5" cy="4.5" r="4.5" transform="translate(1642 31)" fill="#2a0c0c"/>
      </g>
      <g transform="translate(-1501 -31)">
        <circle id="Ellipse_60-4" data-name="Ellipse 60" cx="4.5" cy="4.5" r="4.5" transform="translate(1642 31)" fill="#2a0c0c"/>
      </g>
      <g transform="translate(-1454 -31)">
        <circle id="Ellipse_60-5" data-name="Ellipse 60" cx="4.5" cy="4.5" r="4.5" transform="translate(1642 31)" fill="#2a0c0c"/>
      </g>
      <g transform="translate(-1407 -31)">
        <circle id="Ellipse_60-6" data-name="Ellipse 60" cx="4.5" cy="4.5" r="4.5" transform="translate(1642 31)" fill="#2a0c0c"/>
      </g>
      <g transform="translate(-1642 17)">
        <circle id="Ellipse_60-7" data-name="Ellipse 60" cx="4.5" cy="4.5" r="4.5" transform="translate(1642 31)" fill="#2a0c0c"/>
      </g>
      <g transform="translate(-1595 17)">
        <circle id="Ellipse_60-8" data-name="Ellipse 60" cx="4.5" cy="4.5" r="4.5" transform="translate(1642 31)" fill="#2a0c0c"/>
      </g>
      <g transform="translate(-1548 17)">
        <circle id="Ellipse_60-9" data-name="Ellipse 60" cx="4.5" cy="4.5" r="4.5" transform="translate(1642 31)" fill="#2a0c0c"/>
      </g>
      <g transform="translate(-1501 17)">
        <circle id="Ellipse_60-10" data-name="Ellipse 60" cx="4.5" cy="4.5" r="4.5" transform="translate(1642 31)" fill="#2a0c0c"/>
      </g>
      <g transform="translate(-1454 17)">
        <circle id="Ellipse_60-11" data-name="Ellipse 60" cx="4.5" cy="4.5" r="4.5" transform="translate(1642 31)" fill="#2a0c0c"/>
      </g>
      <g transform="translate(-1407 17)">
        <circle id="Ellipse_60-12" data-name="Ellipse 60" cx="4.5" cy="4.5" r="4.5" transform="translate(1642 31)" fill="#2a0c0c"/>
      </g>
      <g transform="translate(-1642 65)">
        <circle id="Ellipse_60-13" data-name="Ellipse 60" cx="4.5" cy="4.5" r="4.5" transform="translate(1642 31)" fill="#2a0c0c"/>
      </g>
      <g transform="translate(-1595 65)">
        <circle id="Ellipse_60-14" data-name="Ellipse 60" cx="4.5" cy="4.5" r="4.5" transform="translate(1642 31)" fill="#2a0c0c"/>
      </g>
      <g transform="translate(-1548 65)">
        <circle id="Ellipse_60-15" data-name="Ellipse 60" cx="4.5" cy="4.5" r="4.5" transform="translate(1642 31)" fill="#2a0c0c"/>
      </g>
      <g transform="translate(-1501 65)">
        <circle id="Ellipse_60-16" data-name="Ellipse 60" cx="4.5" cy="4.5" r="4.5" transform="translate(1642 31)" fill="#2a0c0c"/>
      </g>
      <g transform="translate(-1454 65)">
        <circle id="Ellipse_60-17" data-name="Ellipse 60" cx="4.5" cy="4.5" r="4.5" transform="translate(1642 31)" fill="#2a0c0c"/>
      </g>
      <g transform="translate(-1407 65)">
        <circle id="Ellipse_60-18" data-name="Ellipse 60" cx="4.5" cy="4.5" r="4.5" transform="translate(1642 31)" fill="#2a0c0c"/>
      </g>
      <g transform="translate(-1642 113)">
        <circle id="Ellipse_60-19" data-name="Ellipse 60" cx="4.5" cy="4.5" r="4.5" transform="translate(1642 31)" fill="#2a0c0c"/>
      </g>
      <g transform="translate(-1595 113)">
        <circle id="Ellipse_60-20" data-name="Ellipse 60" cx="4.5" cy="4.5" r="4.5" transform="translate(1642 31)" fill="#2a0c0c"/>
      </g>
      <g transform="translate(-1548 113)">
        <circle id="Ellipse_60-21" data-name="Ellipse 60" cx="4.5" cy="4.5" r="4.5" transform="translate(1642 31)" fill="#2a0c0c"/>
      </g>
      <g transform="translate(-1501 113)">
        <circle id="Ellipse_60-22" data-name="Ellipse 60" cx="4.5" cy="4.5" r="4.5" transform="translate(1642 31)" fill="#2a0c0c"/>
      </g>
      <g transform="translate(-1454 113)">
        <circle id="Ellipse_60-23" data-name="Ellipse 60" cx="4.5" cy="4.5" r="4.5" transform="translate(1642 31)" fill="#2a0c0c"/>
      </g>
      <g transform="translate(-1407 113)">
        <circle id="Ellipse_60-24" data-name="Ellipse 60" cx="4.5" cy="4.5" r="4.5" transform="translate(1642 31)" fill="#2a0c0c"/>
      </g>
      <g transform="translate(-1642 161)">
        <circle id="Ellipse_60-25" data-name="Ellipse 60" cx="4.5" cy="4.5" r="4.5" transform="translate(1642 31)" fill="#2a0c0c"/>
      </g>
      <g transform="translate(-1595 161)">
        <circle id="Ellipse_60-26" data-name="Ellipse 60" cx="4.5" cy="4.5" r="4.5" transform="translate(1642 31)" fill="#2a0c0c"/>
      </g>
      <g transform="translate(-1548 161)">
        <circle id="Ellipse_60-27" data-name="Ellipse 60" cx="4.5" cy="4.5" r="4.5" transform="translate(1642 31)" fill="#2a0c0c"/>
      </g>
      <g transform="translate(-1501 161)">
        <circle id="Ellipse_60-28" data-name="Ellipse 60" cx="4.5" cy="4.5" r="4.5" transform="translate(1642 31)" fill="#2a0c0c"/>
      </g>
      <g transform="translate(-1454 161)">
        <circle id="Ellipse_60-29" data-name="Ellipse 60" cx="4.5" cy="4.5" r="4.5" transform="translate(1642 31)" fill="#2a0c0c"/>
      </g>
      <g transform="translate(-1407 161)">
        <circle id="Ellipse_60-30" data-name="Ellipse 60" cx="4.5" cy="4.5" r="4.5" transform="translate(1642 31)" fill="#2a0c0c"/>
      </g>
      <g transform="translate(-1642 209)">
        <circle id="Ellipse_60-31" data-name="Ellipse 60" cx="4.5" cy="4.5" r="4.5" transform="translate(1642 31)" fill="#2a0c0c"/>
      </g>
      <g transform="translate(-1595 209)">
        <circle id="Ellipse_60-32" data-name="Ellipse 60" cx="4.5" cy="4.5" r="4.5" transform="translate(1642 31)" fill="#2a0c0c"/>
      </g>
      <g transform="translate(-1548 209)">
        <circle id="Ellipse_60-33" data-name="Ellipse 60" cx="4.5" cy="4.5" r="4.5" transform="translate(1642 31)" fill="#2a0c0c"/>
      </g>
      <g transform="translate(-1501 209)">
        <circle id="Ellipse_60-34" data-name="Ellipse 60" cx="4.5" cy="4.5" r="4.5" transform="translate(1642 31)" fill="#2a0c0c"/>
      </g>
      <g transform="translate(-1454 209)">
        <circle id="Ellipse_60-35" data-name="Ellipse 60" cx="4.5" cy="4.5" r="4.5" transform="translate(1642 31)" fill="#2a0c0c"/>
      </g>
      <g transform="translate(-1407 209)">
        <circle id="Ellipse_60-36" data-name="Ellipse 60" cx="4.5" cy="4.5" r="4.5" transform="translate(1642 31)" fill="#2a0c0c"/>
      </g>
      <g transform="translate(-1642 257)">
        <circle id="Ellipse_60-37" data-name="Ellipse 60" cx="4.5" cy="4.5" r="4.5" transform="translate(1642 31)" fill="#2a0c0c"/>
      </g>
      <g transform="translate(-1595 257)">
        <circle id="Ellipse_60-38" data-name="Ellipse 60" cx="4.5" cy="4.5" r="4.5" transform="translate(1642 31)" fill="#2a0c0c"/>
      </g>
      <g transform="translate(-1548 257)">
        <circle id="Ellipse_60-39" data-name="Ellipse 60" cx="4.5" cy="4.5" r="4.5" transform="translate(1642 31)" fill="#2a0c0c"/>
      </g>
      <g transform="translate(-1501 257)">
        <circle id="Ellipse_60-40" data-name="Ellipse 60" cx="4.5" cy="4.5" r="4.5" transform="translate(1642 31)" fill="#2a0c0c"/>
      </g>
      <g transform="translate(-1454 257)">
        <circle id="Ellipse_60-41" data-name="Ellipse 60" cx="4.5" cy="4.5" r="4.5" transform="translate(1642 31)" fill="#2a0c0c"/>
      </g>
      <g transform="translate(-1407 257)">
        <circle id="Ellipse_60-42" data-name="Ellipse 60" cx="4.5" cy="4.5" r="4.5" transform="translate(1642 31)" fill="#2a0c0c"/>
      </g>
      <g transform="translate(-1642 305)">
        <circle id="Ellipse_60-43" data-name="Ellipse 60" cx="4.5" cy="4.5" r="4.5" transform="translate(1642 31)" fill="#2a0c0c"/>
      </g>
      <g transform="translate(-1595 305)">
        <circle id="Ellipse_60-44" data-name="Ellipse 60" cx="4.5" cy="4.5" r="4.5" transform="translate(1642 31)" fill="#2a0c0c"/>
      </g>
      <g transform="translate(-1548 305)">
        <circle id="Ellipse_60-45" data-name="Ellipse 60" cx="4.5" cy="4.5" r="4.5" transform="translate(1642 31)" fill="#2a0c0c"/>
      </g>
      <g transform="translate(-1501 305)">
        <circle id="Ellipse_60-46" data-name="Ellipse 60" cx="4.5" cy="4.5" r="4.5" transform="translate(1642 31)" fill="#2a0c0c"/>
      </g>
      <g transform="translate(-1454 305)">
        <circle id="Ellipse_60-47" data-name="Ellipse 60" cx="4.5" cy="4.5" r="4.5" transform="translate(1642 31)" fill="#2a0c0c"/>
      </g>
      <g transform="translate(-1407 305)">
        <circle id="Ellipse_60-48" data-name="Ellipse 60" cx="4.5" cy="4.5" r="4.5" transform="translate(1642 31)" fill="#2a0c0c"/>
      </g>
      <g transform="translate(-1642 353)">
        <circle id="Ellipse_60-49" data-name="Ellipse 60" cx="4.5" cy="4.5" r="4.5" transform="translate(1642 31)" fill="#2a0c0c"/>
      </g>
      <g transform="translate(-1595 353)">
        <circle id="Ellipse_60-50" data-name="Ellipse 60" cx="4.5" cy="4.5" r="4.5" transform="translate(1642 31)" fill="#2a0c0c"/>
      </g>
      <g transform="translate(-1548 353)">
        <circle id="Ellipse_60-51" data-name="Ellipse 60" cx="4.5" cy="4.5" r="4.5" transform="translate(1642 31)" fill="#2a0c0c"/>
      </g>
      <g transform="translate(-1501 353)">
        <circle id="Ellipse_60-52" data-name="Ellipse 60" cx="4.5" cy="4.5" r="4.5" transform="translate(1642 31)" fill="#2a0c0c"/>
      </g>
      <g transform="translate(-1454 353)">
        <circle id="Ellipse_60-53" data-name="Ellipse 60" cx="4.5" cy="4.5" r="4.5" transform="translate(1642 31)" fill="#2a0c0c"/>
      </g>
      <g transform="translate(-1407 353)">
        <circle id="Ellipse_60-54" data-name="Ellipse 60" cx="4.5" cy="4.5" r="4.5" transform="translate(1642 31)" fill="#2a0c0c"/>
      </g>
      <g transform="translate(-1642 401)">
        <circle id="Ellipse_60-55" data-name="Ellipse 60" cx="4.5" cy="4.5" r="4.5" transform="translate(1642 31)" fill="#2a0c0c"/>
      </g>
      <g transform="translate(-1595 401)">
        <circle id="Ellipse_60-56" data-name="Ellipse 60" cx="4.5" cy="4.5" r="4.5" transform="translate(1642 31)" fill="#2a0c0c"/>
      </g>
      <g transform="translate(-1548 401)">
        <circle id="Ellipse_60-57" data-name="Ellipse 60" cx="4.5" cy="4.5" r="4.5" transform="translate(1642 31)" fill="#2a0c0c"/>
      </g>
      <g transform="translate(-1501 401)">
        <circle id="Ellipse_60-58" data-name="Ellipse 60" cx="4.5" cy="4.5" r="4.5" transform="translate(1642 31)" fill="#2a0c0c"/>
      </g>
      <g transform="translate(-1454 401)">
        <circle id="Ellipse_60-59" data-name="Ellipse 60" cx="4.5" cy="4.5" r="4.5" transform="translate(1642 31)" fill="#2a0c0c"/>
      </g>
      <g transform="translate(-1407 401)">
        <circle id="Ellipse_60-60" data-name="Ellipse 60" cx="4.5" cy="4.5" r="4.5" transform="translate(1642 31)" fill="#2a0c0c"/>
      </g>
      <g transform="translate(-1642 449)">
        <circle id="Ellipse_60-61" data-name="Ellipse 60" cx="4.5" cy="4.5" r="4.5" transform="translate(1642 31)" fill="#2a0c0c"/>
      </g>
      <g transform="translate(-1595 449)">
        <circle id="Ellipse_60-62" data-name="Ellipse 60" cx="4.5" cy="4.5" r="4.5" transform="translate(1642 31)" fill="#2a0c0c"/>
      </g>
      <g transform="translate(-1548 449)">
        <circle id="Ellipse_60-63" data-name="Ellipse 60" cx="4.5" cy="4.5" r="4.5" transform="translate(1642 31)" fill="#2a0c0c"/>
      </g>
      <g transform="translate(-1501 449)">
        <circle id="Ellipse_60-64" data-name="Ellipse 60" cx="4.5" cy="4.5" r="4.5" transform="translate(1642 31)" fill="#2a0c0c"/>
      </g>
      <g transform="translate(-1454 449)">
        <circle id="Ellipse_60-65" data-name="Ellipse 60" cx="4.5" cy="4.5" r="4.5" transform="translate(1642 31)" fill="#2a0c0c"/>
      </g>
      <g transform="translate(-1407 449)">
        <circle id="Ellipse_60-66" data-name="Ellipse 60" cx="4.5" cy="4.5" r="4.5" transform="translate(1642 31)" fill="#2a0c0c"/>
      </g>
      <g transform="translate(-1642 497)">
        <circle id="Ellipse_60-67" data-name="Ellipse 60" cx="4.5" cy="4.5" r="4.5" transform="translate(1642 31)" fill="#2a0c0c"/>
      </g>
      <g transform="translate(-1595 497)">
        <circle id="Ellipse_60-68" data-name="Ellipse 60" cx="4.5" cy="4.5" r="4.5" transform="translate(1642 31)" fill="#2a0c0c"/>
      </g>
      <g transform="translate(-1548 497)">
        <circle id="Ellipse_60-69" data-name="Ellipse 60" cx="4.5" cy="4.5" r="4.5" transform="translate(1642 31)" fill="#2a0c0c"/>
      </g>
      <g transform="translate(-1501 497)">
        <circle id="Ellipse_60-70" data-name="Ellipse 60" cx="4.5" cy="4.5" r="4.5" transform="translate(1642 31)" fill="#2a0c0c"/>
      </g>
      <g transform="translate(-1454 497)">
        <circle id="Ellipse_60-71" data-name="Ellipse 60" cx="4.5" cy="4.5" r="4.5" transform="translate(1642 31)" fill="#2a0c0c"/>
      </g>
      <g transform="translate(-1407 497)">
        <circle id="Ellipse_60-72" data-name="Ellipse 60" cx="4.5" cy="4.5" r="4.5" transform="translate(1642 31)" fill="#2a0c0c"/>
      </g>
      <g transform="translate(-1642 545)">
        <circle id="Ellipse_60-73" data-name="Ellipse 60" cx="4.5" cy="4.5" r="4.5" transform="translate(1642 31)" fill="#2a0c0c"/>
      </g>
      <g transform="translate(-1595 545)">
        <circle id="Ellipse_60-74" data-name="Ellipse 60" cx="4.5" cy="4.5" r="4.5" transform="translate(1642 31)" fill="#2a0c0c"/>
      </g>
      <g transform="translate(-1548 545)">
        <circle id="Ellipse_60-75" data-name="Ellipse 60" cx="4.5" cy="4.5" r="4.5" transform="translate(1642 31)" fill="#2a0c0c"/>
      </g>
      <g transform="translate(-1501 545)">
        <circle id="Ellipse_60-76" data-name="Ellipse 60" cx="4.5" cy="4.5" r="4.5" transform="translate(1642 31)" fill="#2a0c0c"/>
      </g>
      <g transform="translate(-1454 545)">
        <circle id="Ellipse_60-77" data-name="Ellipse 60" cx="4.5" cy="4.5" r="4.5" transform="translate(1642 31)" fill="#2a0c0c"/>
      </g>
      <g transform="translate(-1407 545)">
        <circle id="Ellipse_60-78" data-name="Ellipse 60" cx="4.5" cy="4.5" r="4.5" transform="translate(1642 31)" fill="#2a0c0c"/>
      </g>
      <g transform="translate(-1642 593)">
        <circle id="Ellipse_60-79" data-name="Ellipse 60" cx="4.5" cy="4.5" r="4.5" transform="translate(1642 31)" fill="#2a0c0c"/>
      </g>
      <g transform="translate(-1595 593)">
        <circle id="Ellipse_60-80" data-name="Ellipse 60" cx="4.5" cy="4.5" r="4.5" transform="translate(1642 31)" fill="#2a0c0c"/>
      </g>
      <g transform="translate(-1548 593)">
        <circle id="Ellipse_60-81" data-name="Ellipse 60" cx="4.5" cy="4.5" r="4.5" transform="translate(1642 31)" fill="#2a0c0c"/>
      </g>
      <g transform="translate(-1501 593)">
        <circle id="Ellipse_60-82" data-name="Ellipse 60" cx="4.5" cy="4.5" r="4.5" transform="translate(1642 31)" fill="#2a0c0c"/>
      </g>
      <g transform="translate(-1454 593)">
        <circle id="Ellipse_60-83" data-name="Ellipse 60" cx="4.5" cy="4.5" r="4.5" transform="translate(1642 31)" fill="#2a0c0c"/>
      </g>
      <g transform="translate(-1407 593)">
        <circle id="Ellipse_60-84" data-name="Ellipse 60" cx="4.5" cy="4.5" r="4.5" transform="translate(1642 31)" fill="#2a0c0c"/>
      </g>
      <g transform="translate(-1642 641)">
        <circle id="Ellipse_60-85" data-name="Ellipse 60" cx="4.5" cy="4.5" r="4.5" transform="translate(1642 31)" fill="#2a0c0c"/>
      </g>
      <g transform="translate(-1595 641)">
        <circle id="Ellipse_60-86" data-name="Ellipse 60" cx="4.5" cy="4.5" r="4.5" transform="translate(1642 31)" fill="#2a0c0c"/>
      </g>
      <g transform="translate(-1548 641)">
        <circle id="Ellipse_60-87" data-name="Ellipse 60" cx="4.5" cy="4.5" r="4.5" transform="translate(1642 31)" fill="#2a0c0c"/>
      </g>
      <g transform="translate(-1501 641)">
        <circle id="Ellipse_60-88" data-name="Ellipse 60" cx="4.5" cy="4.5" r="4.5" transform="translate(1642 31)" fill="#2a0c0c"/>
      </g>
      <g transform="translate(-1454 641)">
        <circle id="Ellipse_60-89" data-name="Ellipse 60" cx="4.5" cy="4.5" r="4.5" transform="translate(1642 31)" fill="#2a0c0c"/>
      </g>
      <g transform="translate(-1407 641)">
        <circle id="Ellipse_60-90" data-name="Ellipse 60" cx="4.5" cy="4.5" r="4.5" transform="translate(1642 31)" fill="#2a0c0c"/>
      </g>
      <g transform="translate(-1642 689)">
        <circle id="Ellipse_60-91" data-name="Ellipse 60" cx="4.5" cy="4.5" r="4.5" transform="translate(1642 31)" fill="#2a0c0c"/>
      </g>
      <g transform="translate(-1595 689)">
        <circle id="Ellipse_60-92" data-name="Ellipse 60" cx="4.5" cy="4.5" r="4.5" transform="translate(1642 31)" fill="#2a0c0c"/>
      </g>
      <g transform="translate(-1548 689)">
        <circle id="Ellipse_60-93" data-name="Ellipse 60" cx="4.5" cy="4.5" r="4.5" transform="translate(1642 31)" fill="#2a0c0c"/>
      </g>
      <g transform="translate(-1501 689)">
        <circle id="Ellipse_60-94" data-name="Ellipse 60" cx="4.5" cy="4.5" r="4.5" transform="translate(1642 31)" fill="#2a0c0c"/>
      </g>
      <g transform="translate(-1454 689)">
        <circle id="Ellipse_60-95" data-name="Ellipse 60" cx="4.5" cy="4.5" r="4.5" transform="translate(1642 31)" fill="#2a0c0c"/>
      </g>
      <g transform="translate(-1407 689)">
        <circle id="Ellipse_60-96" data-name="Ellipse 60" cx="4.5" cy="4.5" r="4.5" transform="translate(1642 31)" fill="#2a0c0c"/>
      </g>
      <g transform="translate(-1642 737)">
        <circle id="Ellipse_60-97" data-name="Ellipse 60" cx="4.5" cy="4.5" r="4.5" transform="translate(1642 31)" fill="#2a0c0c"/>
      </g>
      <g transform="translate(-1595 737)">
        <circle id="Ellipse_60-98" data-name="Ellipse 60" cx="4.5" cy="4.5" r="4.5" transform="translate(1642 31)" fill="#2a0c0c"/>
      </g>
      <g transform="translate(-1548 737)">
        <circle id="Ellipse_60-99" data-name="Ellipse 60" cx="4.5" cy="4.5" r="4.5" transform="translate(1642 31)" fill="#2a0c0c"/>
      </g>
      <g transform="translate(-1501 737)">
        <circle id="Ellipse_60-100" data-name="Ellipse 60" cx="4.5" cy="4.5" r="4.5" transform="translate(1642 31)" fill="#2a0c0c"/>
      </g>
      <g transform="translate(-1454 737)">
        <circle id="Ellipse_60-101" data-name="Ellipse 60" cx="4.5" cy="4.5" r="4.5" transform="translate(1642 31)" fill="#2a0c0c"/>
      </g>
      <g transform="translate(-1407 737)">
        <circle id="Ellipse_60-102" data-name="Ellipse 60" cx="4.5" cy="4.5" r="4.5" transform="translate(1642 31)" fill="#2a0c0c"/>
      </g>
      <g transform="translate(-1642 785)">
        <circle id="Ellipse_60-103" data-name="Ellipse 60" cx="4.5" cy="4.5" r="4.5" transform="translate(1642 31)" fill="#2a0c0c"/>
      </g>
      <g transform="translate(-1595 785)">
        <circle id="Ellipse_60-104" data-name="Ellipse 60" cx="4.5" cy="4.5" r="4.5" transform="translate(1642 31)" fill="#2a0c0c"/>
      </g>
      <g transform="translate(-1548 785)">
        <circle id="Ellipse_60-105" data-name="Ellipse 60" cx="4.5" cy="4.5" r="4.5" transform="translate(1642 31)" fill="#2a0c0c"/>
      </g>
      <g transform="translate(-1501 785)">
        <circle id="Ellipse_60-106" data-name="Ellipse 60" cx="4.5" cy="4.5" r="4.5" transform="translate(1642 31)" fill="#2a0c0c"/>
      </g>
      <g transform="translate(-1454 785)">
        <circle id="Ellipse_60-107" data-name="Ellipse 60" cx="4.5" cy="4.5" r="4.5" transform="translate(1642 31)" fill="#2a0c0c"/>
      </g>
      <g transform="translate(-1407 785)">
        <circle id="Ellipse_60-108" data-name="Ellipse 60" cx="4.5" cy="4.5" r="4.5" transform="translate(1642 31)" fill="#2a0c0c"/>
      </g>
      <g transform="translate(-1642 833)">
        <circle id="Ellipse_60-109" data-name="Ellipse 60" cx="4.5" cy="4.5" r="4.5" transform="translate(1642 31)" fill="#2a0c0c"/>
      </g>
      <g transform="translate(-1595 833)">
        <circle id="Ellipse_60-110" data-name="Ellipse 60" cx="4.5" cy="4.5" r="4.5" transform="translate(1642 31)" fill="#2a0c0c"/>
      </g>
      <g transform="translate(-1548 833)">
        <circle id="Ellipse_60-111" data-name="Ellipse 60" cx="4.5" cy="4.5" r="4.5" transform="translate(1642 31)" fill="#2a0c0c"/>
      </g>
      <g transform="translate(-1501 833)">
        <circle id="Ellipse_60-112" data-name="Ellipse 60" cx="4.5" cy="4.5" r="4.5" transform="translate(1642 31)" fill="#2a0c0c"/>
      </g>
      <g transform="translate(-1454 833)">
        <circle id="Ellipse_60-113" data-name="Ellipse 60" cx="4.5" cy="4.5" r="4.5" transform="translate(1642 31)" fill="#2a0c0c"/>
      </g>
      <g transform="translate(-1407 833)">
        <circle id="Ellipse_60-114" data-name="Ellipse 60" cx="4.5" cy="4.5" r="4.5" transform="translate(1642 31)" fill="#2a0c0c"/>
      </g>
      <g transform="translate(-1642 881)">
        <circle id="Ellipse_60-115" data-name="Ellipse 60" cx="4.5" cy="4.5" r="4.5" transform="translate(1642 31)" fill="#2a0c0c"/>
      </g>
      <g transform="translate(-1595 881)">
        <circle id="Ellipse_60-116" data-name="Ellipse 60" cx="4.5" cy="4.5" r="4.5" transform="translate(1642 31)" fill="#2a0c0c"/>
      </g>
      <g transform="translate(-1548 881)">
        <circle id="Ellipse_60-117" data-name="Ellipse 60" cx="4.5" cy="4.5" r="4.5" transform="translate(1642 31)" fill="#2a0c0c"/>
      </g>
      <g transform="translate(-1501 881)">
        <circle id="Ellipse_60-118" data-name="Ellipse 60" cx="4.5" cy="4.5" r="4.5" transform="translate(1642 31)" fill="#2a0c0c"/>
      </g>
      <g transform="translate(-1454 881)">
        <circle id="Ellipse_60-119" data-name="Ellipse 60" cx="4.5" cy="4.5" r="4.5" transform="translate(1642 31)" fill="#2a0c0c"/>
      </g>
      <g transform="translate(-1407 881)">
        <circle id="Ellipse_60-120" data-name="Ellipse 60" cx="4.5" cy="4.5" r="4.5" transform="translate(1642 31)" fill="#2a0c0c"/>
      </g>
      <g transform="translate(-1642 929)">
        <circle id="Ellipse_60-121" data-name="Ellipse 60" cx="4.5" cy="4.5" r="4.5" transform="translate(1642 31)" fill="#2a0c0c"/>
      </g>
      <g transform="translate(-1595 929)">
        <circle id="Ellipse_60-122" data-name="Ellipse 60" cx="4.5" cy="4.5" r="4.5" transform="translate(1642 31)" fill="#2a0c0c"/>
      </g>
      <g transform="translate(-1548 929)">
        <circle id="Ellipse_60-123" data-name="Ellipse 60" cx="4.5" cy="4.5" r="4.5" transform="translate(1642 31)" fill="#2a0c0c"/>
      </g>
      <g transform="translate(-1501 929)">
        <circle id="Ellipse_60-124" data-name="Ellipse 60" cx="4.5" cy="4.5" r="4.5" transform="translate(1642 31)" fill="#2a0c0c"/>
      </g>
      <g transform="translate(-1454 929)">
        <circle id="Ellipse_60-125" data-name="Ellipse 60" cx="4.5" cy="4.5" r="4.5" transform="translate(1642 31)" fill="#2a0c0c"/>
      </g>
      <g transform="translate(-1407 929)">
        <circle id="Ellipse_60-126" data-name="Ellipse 60" cx="4.5" cy="4.5" r="4.5" transform="translate(1642 31)" fill="#2a0c0c"/>
      </g>
      <g transform="translate(-1642 977)">
        <circle id="Ellipse_60-127" data-name="Ellipse 60" cx="4.5" cy="4.5" r="4.5" transform="translate(1642 31)" fill="#2a0c0c"/>
      </g>
      <g transform="translate(-1595 977)">
        <circle id="Ellipse_60-128" data-name="Ellipse 60" cx="4.5" cy="4.5" r="4.5" transform="translate(1642 31)" fill="#2a0c0c"/>
      </g>
      <g transform="translate(-1548 977)">
        <circle id="Ellipse_60-129" data-name="Ellipse 60" cx="4.5" cy="4.5" r="4.5" transform="translate(1642 31)" fill="#2a0c0c"/>
      </g>
      <g transform="translate(-1501 977)">
        <circle id="Ellipse_60-130" data-name="Ellipse 60" cx="4.5" cy="4.5" r="4.5" transform="translate(1642 31)" fill="#2a0c0c"/>
      </g>
      <g transform="translate(-1454 977)">
        <circle id="Ellipse_60-131" data-name="Ellipse 60" cx="4.5" cy="4.5" r="4.5" transform="translate(1642 31)" fill="#2a0c0c"/>
      </g>
      <g transform="translate(-1407 977)">
        <circle id="Ellipse_60-132" data-name="Ellipse 60" cx="4.5" cy="4.5" r="4.5" transform="translate(1642 31)" fill="#2a0c0c"/>
      </g>
    </g>
  </g>
</svg>
