<svg xmlns="http://www.w3.org/2000/svg" width="175.618" height="81.393" viewBox="0 0 175.618 81.393">
  <g id="logo" transform="translate(-145.031 -323.835)">
    <g id="Group_1" data-name="Group 1" transform="translate(235.677 379.564)">
      <path id="Path_87" data-name="Path 87" d="M588.7,625.191c-.971,0-1.867.187-1.867-1.045,0-9,8.922-16.612,8.922-17.695,0-.709-1.232-.747-1.68-.747-3.173,0-3.92.971-4.592.971-.784,0-1.568-4.442-1.568-4.89,0-.635,1.157-.485,1.531-.485h11.237c1.045,0,1.643-.149,1.643,1.157,0,.448-.038,3.7-.448,4.442-1.232,2.315-8.4,9.333-8.4,13.066,0,.747.448.821,1.531.821,4.367,0,4.89-1.157,5.487-1.157.672,0,1.643,4.443,1.643,5.04,0,.56-1.12.523-1.456.523Z" transform="translate(-586.831 -600.087)" fill="#fff"/>
      <path id="Path_88" data-name="Path 88" d="M670.888,611.1c0-6.01,2.874-12.469,9.37-12.469s9.37,6.458,9.37,12.469c0,8.773-5.077,12.543-9.37,12.543S670.888,619.87,670.888,611.1ZM685,610.164c0-2.949-1.045-7.13-4.741-7.13s-4.741,4.181-4.741,7.13c0,2.986.971,7.242,4.741,7.242S685,613.151,685,610.164Z" transform="translate(-653.642 -597.977)" fill="#fff"/>
      <path id="Path_89" data-name="Path 89" d="M785.946,620.556c-.485,0-1.307.112-1.307-.6a45.3,45.3,0,0,0,1.9-12.917c0-2.65-.224-5.973-2.763-5.973-1.419,0-4.33.933-4.33,8.325a87.067,87.067,0,0,0,1.082,10.677c0,.523-.635.485-1.008.485h-3.173c-1.381,0-1.941.634-1.941-9.221,0-16.911,1.307-15.866,4.181-15.866,1.307,0,2.651-.187,2.651.672,0,.373-.336.821-.336,1.344,0,.373.186.709.56.709.635,0,2.352-1.531,4.741-1.531,1.045,0,5.376.149,5.376,9.967,0,14.671-1.157,13.924-2.427,13.924Z" transform="translate(-735.924 -595.452)" fill="#fff"/>
      <path id="Path_90" data-name="Path 90" d="M870.293,612.143c0-9.034,5-13.514,10-13.514,4.106,0,7.578,2.314,7.578,6.72,0,8.026-12.021,6.346-12.021,10.228,0,1.755,2.837,3.024,4.7,3.024,6.122,0,6.122-4.666,6.645-4.666.56,0,.672,1.941.672,2.24,0,4.741-3.659,7.466-8.138,7.466C873.056,623.641,870.293,618.116,870.293,612.143Zm5.039-3.7c0,.411.187.821.672.821.448,0,7.242-1.493,7.242-3.4a3.013,3.013,0,0,0-3.136-2.837C877.087,603.034,875.333,606.282,875.333,608.447Z" transform="translate(-812.134 -597.977)" fill="#fff"/>
    </g>
    <g id="Group_2" data-name="Group 2" transform="translate(145.031 330.768)">
      <path id="Path_91" data-name="Path 91" d="M166.414,357.632c9.327,0,11.26,6.768,11.26,10.123,0,15.241-22.236,17.459-22.236,24.625,0,4.777,1.99,11.715,1.99,12.057,0,.682-1.308.512-1.706.512h-7.564c-1.422,0-3.128,1.08-3.128-20.246,0-28.093,2.957-27.07,3.924-27.07Zm2.047,11.943c0-3.924-3.412-5.232-6.824-5.232-4.095,0-7.45.626-7.393,13.706,0,1.365.114,2.616,1.763,2.616C158.964,380.664,168.461,373.669,168.461,369.574Z" transform="translate(-145.031 -357.627)" fill="#fff"/>
      <path id="Path_92" data-name="Path 92" d="M326.7,420.3c1.649-.284,2.957-.569,2.957-2.445,0-2.9-3.014-4.436-5.517-4.436-5.8,0-4.948,4.891-6.2,4.891-1.82,0-3.81-2.218-3.81-4.663,0-4.208,4.72-6.938,9.952-6.938,1.82,0,9.611-.057,12.511,7.9,1.194,3.3,1.308,20.132,1.308,22.122,0,2.5.455,3.981.455,5.915,0,1.194-5.346,1.308-10.407,1.308-13.706,0-14.672-7.052-14.672-10.464C313.276,426.33,320.328,421.382,326.7,420.3Zm3.526,9.952c0-1.99.341-4.379-2.388-4.379-3.355,0-6.881,2.844-6.881,6.313,0,3.185,2.787,5.061,5.8,5.061,3.355,0,3.469-1.706,3.469-4.493Z" transform="translate(-278.756 -396.639)" fill="#fff"/>
      <path id="Path_93" data-name="Path 93" d="M478.582,440.113c-.739,0-1.99.171-1.99-.91a69,69,0,0,0,2.9-19.677c0-4.038-.341-9.1-4.208-9.1-2.161,0-6.6,1.422-6.6,12.682,0,6.824,1.649,15.582,1.649,16.265,0,.8-.967.74-1.535.74h-4.834c-2.1,0-2.957.967-2.957-14.047,0-25.762,1.99-24.17,6.369-24.17,1.99,0,4.038-.284,4.038,1.024,0,.569-.512,1.251-.512,2.047,0,.569.285,1.081.853,1.081.967,0,3.583-2.332,7.223-2.332,1.592,0,8.189.228,8.189,15.184,0,22.35-1.763,21.212-3.7,21.212Z" transform="translate(-396.178 -392.793)" fill="#fff"/>
      <path id="Path_94" data-name="Path 94" d="M620.04,371.594c0,1.536-1.706,5-1.706,5.687,0,1.024.284,1.706,1.137,1.706.739,0,1.422-.284,2.161-.284,2.161,0,2.218,1.536,2.218,3.469,0,.8,0,2.957-1.194,2.957a21.184,21.184,0,0,0-2.616-.512c-3.128,0-3.128,3.64-3.128,8.7,0,15.127,3.185,17.63,3.185,18.6,0,.853-6.6,4.038-7.905,4.038-2.161,0-2.73-12.682-2.73-15.81,0-6.995.341-9.725.341-10.805,0-1.706.512-4.72-2.047-4.72-1.024,0-1.592.682-2.218.682-.74,0-.683-.739-.683-1.763,0-4.322,1.251-4.834,3.412-4.834a8.481,8.481,0,0,0,1.081.228c1.763,0,1.934-2.787,2.218-4.777.284-2.161,6.654-3.753,7.791-3.753C619.756,370.4,620.04,370.514,620.04,371.594Z" transform="translate(-510.51 -367.779)" fill="#fff"/>
      <path id="Path_95" data-name="Path 95" d="M717.792,443.96c-2.1,0-3.128,1.763-3.128-17.061,0-15.753-.455-19.279,1.137-19.336h4.72c.853,0,1.877-.284,1.934.8.114.853.228,1.934,1.365,1.934.853,0,1.82-.91,3.014-1.82a7.387,7.387,0,0,1,4.095-1.763,5.454,5.454,0,0,1,5.289,5.573c0,3.981-3.242,6.369-4.948,6.369-.682,0,.114-3.81-3.81-3.81-4.777,0-5.118,7.677-5.118,11.09,0,11.317,1.934,16.094,1.934,17.118-.057.91-1.308.91-1.934.91Z" transform="translate(-597.742 -396.639)" fill="#fff"/>
      <path id="Path_96" data-name="Path 96" d="M832.693,440.911c0-.683.114-2.332,1.649-2.332,6.54,0,8.246-2.1,8.246-2.843,0-2.389-9.9-6.426-9.9-22.236,0-2.559-.057-2.673,2.161-2.673h4.663c.74,0,1.99-.171,1.99,1.024,0,.8-.512,2.559-.512,4.265,0,6.654,5.573,12.909,6.711,12.909,2.275,0,3.81-6.824,3.81-11.2a61.378,61.378,0,0,0-.625-6.142c0-1.024,1.421-.853,2.047-.853H858c1.081.17.91,1.99.91,4.436.512,16.663-12.341,32.814-24.852,32.814-1.308,0-1.365-.853-1.365-2.161Z" transform="translate(-691.602 -399.903)" fill="#fff"/>
    </g>
    <g id="Group_4" data-name="Group 4" transform="translate(182.065 356.381)">
      <path id="Path_97" data-name="Path 97" d="M344.075,509.522a8.516,8.516,0,1,0-8.516-8.516A8.532,8.532,0,0,0,344.075,509.522Z" transform="translate(-333.501 -490.432)" fill="#fff" fill-rule="evenodd"/>
      <circle id="Ellipse_1" data-name="Ellipse 1" cx="8.014" cy="8.014" r="8.014" transform="translate(0 6.494) rotate(-23.903)" fill="#fff"/>
      <g id="Group_3" data-name="Group 3" transform="translate(2.874 2.886)">
        <path id="Path_98" data-name="Path 98" d="M378.636,496.612a7.658,7.658,0,0,1,3.845,1.472c.446.33.243.478-.091.874l-3.708,4.4c-.291.345-.56.294-.56-.178v-5.914C378.123,496.8,378.11,496.562,378.636,496.612Z" transform="translate(-370.206 -496.589)" fill="#441716" fill-rule="evenodd"/>
        <path id="Path_99" data-name="Path 99" d="M385.347,506.865a7.662,7.662,0,0,1,2,3.6c.13.539-.121.522-.631.611l-5.667.985c-.444.077-.617-.135-.314-.5l3.8-4.53C384.835,506.676,384.975,506.489,385.347,506.865Z" transform="translate(-372.16 -504.58)" fill="#441716" fill-rule="evenodd"/>
        <path id="Path_100" data-name="Path 100" d="M387.689,529.294a7.66,7.66,0,0,1-.782,4.042c-.247.5-.428.323-.876.062l-4.974-2.888c-.39-.226-.386-.5.078-.582l5.824-1.027C387.419,528.82,387.646,528.767,387.689,529.294Z" transform="translate(-372.313 -522.218)" fill="#441716" fill-rule="evenodd"/>
        <path id="Path_101" data-name="Path 101" d="M384.717,540.937a7.66,7.66,0,0,1-3.2,2.594c-.509.221-.535-.028-.711-.516l-1.954-5.41c-.153-.424.026-.631.434-.4l5.122,2.957C384.815,540.4,385.023,540.506,384.717,540.937Z" transform="translate(-370.744 -528.784)" fill="#441716" fill-rule="evenodd"/>
        <path id="Path_102" data-name="Path 102" d="M369.1,544.526a7.662,7.662,0,0,1-4.117-.069c-.532-.158-.392-.366-.213-.852l1.981-5.4c.155-.423.425-.467.586-.024l2.023,5.558C369.522,544.178,369.614,544.393,369.1,544.526Z" transform="translate(-359.467 -529.386)" fill="#441716" fill-rule="evenodd"/>
        <path id="Path_103" data-name="Path 103" d="M348.367,542.867a7.657,7.657,0,0,1-3.11-2.7c-.306-.463-.065-.532.384-.79l4.988-2.864c.391-.224.626-.085.465.359l-2.023,5.557C348.912,542.871,348.844,543.094,348.367,542.867Z" transform="translate(-343.974 -528.227)" fill="#441716" fill-rule="evenodd"/>
        <path id="Path_104" data-name="Path 104" d="M340.233,532.173a7.655,7.655,0,0,1-.647-4.066c.063-.552.292-.45.8-.359l5.662,1.013c.444.079.534.337.125.573l-5.122,2.957C340.648,532.526,340.453,532.654,340.233,532.173Z" transform="translate(-339.536 -521.286)" fill="#441716" fill-rule="evenodd"/>
        <path id="Path_105" data-name="Path 105" d="M340.736,509.563a7.656,7.656,0,0,1,2.118-3.531c.4-.382.513-.156.845.241l3.686,4.415c.289.346.192.6-.272.52l-5.824-1.027C340.827,510.1,340.6,510.073,340.736,509.563Z" transform="translate(-340.457 -503.926)" fill="#441716" fill-rule="evenodd"/>
        <path id="Path_106" data-name="Path 106" d="M354.743,497.873a7.656,7.656,0,0,1,3.892-1.343c.554-.034.493.209.492.728l-.014,5.752c0,.451-.24.584-.543.223l-3.8-4.53C354.468,498.344,354.308,498.174,354.743,497.873Z" transform="translate(-351.411 -496.527)" fill="#441716" fill-rule="evenodd"/>
      </g>
    </g>
    <text id="c" transform="matrix(-0.987, -0.158, -0.158, 0.987, 318.28, 360.861)" fill="#fff" font-size="17" font-family="HoboStd, Hobo Std"><tspan x="0" y="0">c</tspan></text>
    <g id="Group_5" data-name="Group 5" transform="translate(306.245 341.606)">
      <path id="Path_107" data-name="Path 107" d="M930.77,437.681l.7-1.033h3.256l.7,1.033v4.653H930.77Z" transform="translate(-930.77 -431.273)" fill="#441716" fill-rule="evenodd"/>
      <rect id="Rectangle_1" data-name="Rectangle 1" width="0.396" height="6.823" transform="translate(2.129)" fill="#441716"/>
    </g>
    <g id="Group_6" data-name="Group 6" transform="translate(294.694 323.835)">
      <path id="Path_108" data-name="Path 108" d="M894.222,341.606c-2.555-2.589-2.719-4.964-.645-7.921.3-.421.6-.837.867-1.281,1.909-3.162,1.258-6.359-1.644-8.1l-.78-.467a1.865,1.865,0,0,0,.061.369,5.707,5.707,0,0,1-.584,6.066,8.228,8.228,0,0,0-.594.975C888.486,335.847,890.89,340.788,894.222,341.606Z" transform="translate(-886.752 -323.835)" fill="#fff"/>
      <path id="Path_109" data-name="Path 109" d="M876.9,343.822a4.107,4.107,0,0,1-.2-5.47c.187-.282.379-.559.55-.857,1.219-2.122.9-4.342-.795-5.623l-.457-.343a1.477,1.477,0,0,0,.028.256,4.4,4.4,0,0,1-.493,4.159,5.782,5.782,0,0,0-.379.654C873.6,339.7,874.924,343.165,876.9,343.822Z" transform="translate(-874.473 -329.95)" fill="#fff"/>
      <path id="Path_110" data-name="Path 110" d="M911.717,375.431a2.844,2.844,0,0,1-.189-2.606,10.063,10.063,0,0,1,.691-1.152,2.61,2.61,0,0,0,.292-2.469c-.508.817-1,1.643-1.526,2.447C909.986,373.192,910.2,374.436,911.717,375.431Z" transform="translate(-903.009 -359.895)" fill="#fff"/>
    </g>
    <g id="Group_8" data-name="Group 8" transform="translate(261.185 387.979)">
      <g id="Group_7" data-name="Group 7" transform="translate(0 0)">
        <path id="Path_111" data-name="Path 111" d="M711.41,685.148a.162.162,0,0,0,.064-.108.158.158,0,0,0-.03-.12.163.163,0,1,0-.26.2.159.159,0,0,0,.106.062A.166.166,0,0,0,711.41,685.148Z" transform="translate(-711.151 -674.925)" fill="#fff"/>
        <path id="Path_112" data-name="Path 112" d="M714.475,679.072a.162.162,0,0,0,.065-.108.159.159,0,0,0-.03-.12.163.163,0,1,0-.26.2.159.159,0,0,0,.106.062A.165.165,0,0,0,714.475,679.072Z" transform="translate(-713.587 -670.096)" fill="#fff"/>
        <path id="Path_113" data-name="Path 113" d="M727.452,660.648a.17.17,0,0,0,.035-.228.178.178,0,0,0-.11-.065.171.171,0,0,0-.124.038.154.154,0,0,0-.059.1.164.164,0,0,0,.029.123.164.164,0,0,0,.229.031Z" transform="translate(-723.901 -655.453)" fill="#fff"/>
        <path id="Path_114" data-name="Path 114" d="M723.341,668.225a.157.157,0,0,0,.062-.106.17.17,0,0,0-.029-.124.15.15,0,0,0-.109-.06.163.163,0,0,0-.184.137.16.16,0,0,0,.03.12.165.165,0,0,0,.1.061A.156.156,0,0,0,723.341,668.225Z" transform="translate(-720.632 -661.476)" fill="#fff"/>
        <path id="Path_115" data-name="Path 115" d="M730.513,668.986a.182.182,0,0,0,.065-.108.166.166,0,0,0-.032-.122.149.149,0,0,0-.1-.062.154.154,0,0,0-.119.028.151.151,0,0,0-.065.1.155.155,0,0,0,.029.127.152.152,0,0,0,.106.062A.165.165,0,0,0,730.513,668.986Z" transform="translate(-726.335 -662.079)" fill="#fff"/>
        <path id="Path_116" data-name="Path 116" d="M729.412,663.267a.149.149,0,0,0-.065.1.156.156,0,0,0,.029.126.151.151,0,0,0,.106.062.167.167,0,0,0,.121-.027.181.181,0,0,0,.065-.108.166.166,0,0,0-.032-.122.149.149,0,0,0-.1-.062A.156.156,0,0,0,729.412,663.267Z" transform="translate(-725.611 -657.743)" fill="#fff"/>
        <path id="Path_117" data-name="Path 117" d="M722,677.952a.163.163,0,0,0-.073-.292.173.173,0,0,0-.184.138.162.162,0,0,0,.138.184A.163.163,0,0,0,722,677.952Z" transform="translate(-719.569 -669.206)" fill="#fff"/>
        <path id="Path_118" data-name="Path 118" d="M720.2,683.427a.16.16,0,0,0,.062-.107.166.166,0,0,0-.032-.121.182.182,0,0,0-.107-.067.169.169,0,0,0-.185.14.161.161,0,0,0,.034.12.158.158,0,0,0,.228.035Z" transform="translate(-718.133 -673.556)" fill="#fff"/>
        <path id="Path_119" data-name="Path 119" d="M724.642,680.494a.161.161,0,0,0,.034.12.158.158,0,0,0,.227.035.159.159,0,0,0,.062-.106.168.168,0,0,0-.032-.122.182.182,0,0,0-.107-.067A.17.17,0,0,0,724.642,680.494Z" transform="translate(-721.873 -671.348)" fill="#fff"/>
        <path id="Path_120" data-name="Path 120" d="M728.681,676.322a.159.159,0,0,0,.062-.106.167.167,0,0,0-.032-.122.182.182,0,0,0-.107-.067.17.17,0,0,0-.185.14.161.161,0,0,0,.034.12.157.157,0,0,0,.227.035Z" transform="translate(-724.875 -667.909)" fill="#fff"/>
        <path id="Path_121" data-name="Path 121" d="M726.651,670.921a.17.17,0,0,0,.108.067.172.172,0,0,0,.12-.032.16.16,0,0,0,.062-.107.165.165,0,0,0-.032-.121.181.181,0,0,0-.107-.067.17.17,0,0,0-.185.14A.161.161,0,0,0,726.651,670.921Z" transform="translate(-723.442 -663.644)" fill="#fff"/>
        <path id="Path_122" data-name="Path 122" d="M729.229,649.328a.156.156,0,0,0,.061-.1.151.151,0,0,0-.029-.122.166.166,0,0,0-.108-.065.162.162,0,0,0-.123.035.154.154,0,0,0-.061.1.166.166,0,0,0,.032.122.162.162,0,0,0,.106.062A.164.164,0,0,0,729.229,649.328Z" transform="translate(-725.312 -646.457)" fill="#fff"/>
        <path id="Path_123" data-name="Path 123" d="M732.842,655.138a.159.159,0,0,0,.063-.109.17.17,0,0,0-.032-.119.151.151,0,0,0-.105-.062.155.155,0,0,0-.119.029.157.157,0,0,0-.065.1.168.168,0,0,0,.029.124.168.168,0,0,0,.23.033Z" transform="translate(-728.184 -651.074)" fill="#fff"/>
        <path id="Path_124" data-name="Path 124" d="M734.83,662.344a.152.152,0,0,0,.06-.1.144.144,0,0,0-.026-.127.165.165,0,0,0-.109-.065.173.173,0,0,0-.124.038.153.153,0,0,0-.059.1.166.166,0,0,0,.032.122.164.164,0,0,0,.1.064A.166.166,0,0,0,734.83,662.344Z" transform="translate(-729.766 -656.801)" fill="#fff"/>
        <path id="Path_125" data-name="Path 125" d="M725.5,636.757a.154.154,0,0,0,.061-.1.145.145,0,0,0-.026-.127.166.166,0,0,0-.109-.065.17.17,0,0,0-.124.038.154.154,0,0,0-.059.1.161.161,0,0,0,.257.155Z" transform="translate(-722.352 -636.463)" fill="#fff"/>
        <path id="Path_126" data-name="Path 126" d="M731.458,637.222a.159.159,0,0,0,.062-.106.165.165,0,0,0-.032-.122.162.162,0,0,0-.226-.031h0a.162.162,0,0,0-.034.226.146.146,0,0,0,.1.061A.147.147,0,0,0,731.458,637.222Z" transform="translate(-727.083 -636.834)" fill="#fff"/>
        <path id="Path_127" data-name="Path 127" d="M734.021,643.412a.169.169,0,0,0,.03-.228.15.15,0,0,0-.1-.062.154.154,0,0,0-.118.029.152.152,0,0,0-.066.1.169.169,0,0,0,.029.124.153.153,0,0,0,.106.062A.169.169,0,0,0,734.021,643.412Z" transform="translate(-729.121 -641.754)" fill="#fff"/>
      </g>
    </g>
  </g>
</svg>
