<svg id="document" xmlns="http://www.w3.org/2000/svg" width="34.994" height="41.379" viewBox="0 0 34.994 41.379">
  <path id="Path_532" data-name="Path 532" d="M344.212,392a1.212,1.212,0,1,0,1.212,1.212A1.214,1.214,0,0,0,344.212,392Zm0,0" transform="translate(-315.279 -360.319)" fill="#441716"/>
  <path id="Path_533" data-name="Path 533" d="M0,72.219l11.733,2.836L20.2,39.418,8.445,36.637Zm8-3.791a3.637,3.637,0,1,1,3.637-3.637A3.641,3.641,0,0,1,8,68.428Zm9.284-26.942L12.874,59.717,5.8,58.006l4.411-18.231Zm0,0" transform="translate(0 -33.676)" fill="#441716"/>
  <path id="Path_534" data-name="Path 534" d="M85.212,370a1.212,1.212,0,1,0,1.212,1.212A1.214,1.214,0,0,0,85.212,370Zm0,0" transform="translate(-77.211 -340.097)" fill="#441716"/>
  <path id="Path_535" data-name="Path 535" d="M343,112h2.425v15.355H343Zm0,0" transform="translate(-315.279 -102.948)" fill="#441716"/>
  <path id="Path_536" data-name="Path 536" d="M283,0V41.379h12.123V0Zm6.061,36.53a3.637,3.637,0,1,1,3.637-3.637A3.641,3.641,0,0,1,289.061,36.53Zm3.637-9.7h-7.274V6.627H292.7Zm0,0" transform="translate(-260.128)" fill="#441716"/>
  <path id="Path_537" data-name="Path 537" d="M108.035,125.182l3.27-13.518,2.357.57-3.27,13.518Zm0,0" transform="translate(-99.304 -102.64)" fill="#441716"/>
</svg>
