<svg xmlns="http://www.w3.org/2000/svg" width="34.287" height="45.716" viewBox="0 0 34.287 45.716">
  <g id="files-and-folders" transform="translate(0)">
    <path id="Path_538" data-name="Path 538" d="M161.633,192.816a.816.816,0,1,1-.816-.816A.816.816,0,0,1,161.633,192.816Zm0,0" transform="translate(-143.673 -172.408)" fill="#441716"/>
    <path id="Path_539" data-name="Path 539" d="M6.663,88H5.6l1.061,1.91Zm0,0" transform="translate(-5.03 -79.02)" fill="#441716"/>
    <path id="Path_540" data-name="Path 540" d="M0,140.368H34.286v-29.5l-1.619,2.914a4.082,4.082,0,0,1-3.568,2.1H5.187a4.082,4.082,0,0,1-3.568-2.1L0,110.863ZM17.143,117.51a2.443,2.443,0,0,1,.816,4.748v5.865H16.327v-5.865a2.443,2.443,0,0,1,.816-4.748Zm0,0" transform="translate(0 -99.55)" fill="#441716"/>
    <path id="Path_541" data-name="Path 541" d="M240.086,2.084a.85.85,0,0,1,1.461,0l.082.172V0H240V2.257Zm0,0" transform="translate(-215.51)" fill="#441716"/>
    <path id="Path_542" data-name="Path 542" d="M32.816,0A.816.816,0,0,0,32,.816V13.728a2.432,2.432,0,0,0,1.922.966H57.834a2.432,2.432,0,0,0,1.922-.966V.816A.816.816,0,0,0,58.94,0H56.49V5.714a.816.816,0,0,1-1.551.365l-.9-1.8-.9,1.8a.816.816,0,0,1-1.551-.365V0Zm7.347,3.265h9.8V4.9h-9.8Zm-4.9,0h3.265V4.9H35.265Zm0,3.265H49.96V8.163H35.265Zm11.429,6.531H35.265V11.429H46.694Zm9.8-1.633v1.633H48.327V11.429Zm0,0" transform="translate(-28.735 0)" fill="#441716"/>
    <path id="Path_543" data-name="Path 543" d="M320,88v1.911L321.061,88Zm0,0" transform="translate(-287.346 -79.02)" fill="#441716"/>
    <path id="Path_544" data-name="Path 544" d="M0,418.449a.816.816,0,0,0,.816.816H33.47a.816.816,0,0,0,.816-.816V416H0Zm0,0" transform="translate(0 -373.55)" fill="#441716"/>
  </g>
</svg>
