<svg xmlns="http://www.w3.org/2000/svg" width="38.417" height="43.905" viewBox="0 0 38.417 43.905">
  <g id="notepad" transform="translate(-32)">
    <g id="Group_4745" data-name="Group 4745" transform="translate(32)">
      <path id="Path_545" data-name="Path 545" d="M67.673,0h-31.1a2.747,2.747,0,0,0-2.744,2.744V7.318h-.915a.915.915,0,0,0,0,1.829h7.318a.915.915,0,0,0,0-1.829H37.657a2.739,2.739,0,1,1,2.576,3.659h-6.4v5.488h-.915a.915.915,0,0,0,0,1.829h7.318a.915.915,0,0,0,0-1.829H37.657a2.739,2.739,0,1,1,2.576,3.659h-6.4v5.488h-.915a.915.915,0,1,0,0,1.829h7.318a.915.915,0,0,0,0-1.829H37.657a2.739,2.739,0,1,1,2.576,3.659h-6.4v5.488h-.915a.915.915,0,0,0,0,1.829h7.318a.915.915,0,0,0,0-1.829H37.657a2.739,2.739,0,1,1,2.576,3.659h-6.4v2.744a2.747,2.747,0,0,0,2.744,2.744h31.1a2.747,2.747,0,0,0,2.744-2.744V2.744A2.747,2.747,0,0,0,67.673,0Z" transform="translate(-32)" fill="#441716"/>
    </g>
  </g>
</svg>
