<svg xmlns="http://www.w3.org/2000/svg" width="44.242" height="44.196" viewBox="0 0 44.242 44.196">
  <g id="pen" transform="translate(0 -0.269)">
    <g id="Group_4736" data-name="Group 4736" transform="translate(25.807 5.755)">
      <g id="Group_4735" data-name="Group 4735">
        <path id="Path_527" data-name="Path 527" d="M310.367,74.172,300.228,64.033a.922.922,0,0,0-1.3,1.3l10.139,10.139a.922.922,0,0,0,1.3-1.3Z" transform="translate(-298.655 -63.763)" fill="#441716"/>
      </g>
    </g>
    <g id="Group_4738" data-name="Group 4738" transform="translate(12.903 5.755)">
      <g id="Group_4737" data-name="Group 4737">
        <path id="Path_528" data-name="Path 528" d="M163.8,64.033a.922.922,0,0,0-1.3,0l-12.9,12.9a.922.922,0,0,0,1.3,1.3l12.9-12.9A.922.922,0,0,0,163.8,64.033Z" transform="translate(-149.322 -63.763)" fill="#441716"/>
      </g>
    </g>
    <g id="Group_4740" data-name="Group 4740" transform="translate(5.53 8.143)">
      <g id="Group_4739" data-name="Group 4739">
        <path id="Path_529" data-name="Path 529" d="M87.964,91.395l-23.97,23.959,6.765,6.765c2.42-2.5,8.684-8.8,23.987-23.943Z" transform="translate(-63.994 -91.395)" fill="#441716"/>
      </g>
    </g>
    <g id="Group_4742" data-name="Group 4742" transform="translate(0 33.406)">
      <g id="Group_4741" data-name="Group 4741" transform="translate(0)">
        <path id="Path_530" data-name="Path 530" d="M4.226,383.747l-.271.269a.885.885,0,0,0-.2.31L.066,393.543a.921.921,0,0,0,1.2,1.2l9.217-3.687a.921.921,0,0,0,.465-.411c.02-.026.05-.059.083-.1Z" transform="translate(0 -383.747)" fill="#441716"/>
      </g>
    </g>
    <g id="Group_4744" data-name="Group 4744" transform="translate(30.803 0.269)">
      <g id="Group_4743" data-name="Group 4743" transform="translate(0 0)">
        <path id="Path_531" data-name="Path 531" d="M368.489,1.632a4.927,4.927,0,0,0-6.8,0l-5.21,5.208,6.789,6.789c1.643-1.626,3.374-3.339,5.221-5.164a4.8,4.8,0,0,0,0-6.834Z" transform="translate(-356.475 -0.269)" fill="#441716"/>
      </g>
    </g>
  </g>
</svg>
